HIERARCHY
ROOT Hips
{
  OFFSET -33.5316 70.2386 -43.0745
  CHANNELS 6 Xposition Yposition Zposition Zrotation Xrotation Yrotation
  JOINT ToSpine
  {
    OFFSET -2.69724 7.43032 -0.144315
    CHANNELS 3 Zrotation Xrotation Yrotation
    JOINT Spine
    {
      OFFSET -0.0310711 10.7595 1.96963
      CHANNELS 3 Zrotation Xrotation Yrotation
      JOINT Spine1
      {
        OFFSET 13.1342 3.43533 0.764692
        CHANNELS 3 Zrotation Xrotation Yrotation
        JOINT Neck
        {
          OFFSET 29.8703 7.82586 -0.130764
          CHANNELS 3 Zrotation Xrotation Yrotation
          JOINT Head
          {
            OFFSET 9.52751 0.295786 -0.907742
            CHANNELS 3 Zrotation Xrotation Yrotation
            End Site
            {
              OFFSET 16.4037 0.713936 2.7358
            }
          }
        }
        JOINT LeftShoulder
        {
          OFFSET 27.5574 4.95586 2.47156
          CHANNELS 3 Zrotation Xrotation Yrotation
          JOINT LeftArm
          {
            OFFSET 1.20734 -0.998971 20.1238
            CHANNELS 3 Zrotation Xrotation Yrotation
            JOINT LeftForeArm
            {
              OFFSET 26.8049 -0.0536703 -0.155908
              CHANNELS 3 Zrotation Xrotation Yrotation
              JOINT LeftHand
              {
                OFFSET 26.6817 0 0.320147
                CHANNELS 3 Zrotation Xrotation Yrotation
                End Site
                {
                  OFFSET 18.6119 0 0.382219
                }
              }
            }
          }
        }
        JOINT RightShoulder
        {
          OFFSET 27.5927 4.71444 -2.65209
          CHANNELS 3 Zrotation Xrotation Yrotation
          JOINT RightArm
          {
            OFFSET 2.83739 -1.17114 -18.7564
            CHANNELS 3 Zrotation Xrotation Yrotation
            JOINT RightForeArm
            {
              OFFSET 28.839 -0.0548439 1.22491
              CHANNELS 3 Zrotation Xrotation Yrotation
              JOINT RightHand
              {
                OFFSET 26.5114 0 -0.101894
                CHANNELS 3 Zrotation Xrotation Yrotation
                End Site
                {
                  OFFSET 18.2168 0 0
                }
              }
            }
          }
        }
      }
    }
  }
  JOINT LeftUpLeg
  {
    OFFSET -4.76168 -1.9167 -10.2353
    CHANNELS 3 Zrotation Xrotation Yrotation
    JOINT LeftLeg
    {
      OFFSET 2.55951 -42.0585 -8.02213
      CHANNELS 3 Zrotation Xrotation Yrotation
      JOINT LeftFoot
      {
        OFFSET 3.16357 -42.5282 -3.95426
        CHANNELS 3 Zrotation Xrotation Yrotation
        JOINT LeftToeBase
        {
          OFFSET 0.346054 -6.02161 12.8035
          CHANNELS 3 Zrotation Xrotation Yrotation
          End Site
          {
            OFFSET 0.134235 -1.35082 5.13018
          }
        }
      }
    }
  }
  JOINT RightUpLeg
  {
    OFFSET -4.94151 -1.41743 10.6446
    CHANNELS 3 Zrotation Xrotation Yrotation
    JOINT RightLeg
    {
      OFFSET -2.56294 -42.0364 -7.94377
      CHANNELS 3 Zrotation Xrotation Yrotation
      JOINT RightFoot
      {
        OFFSET -3.0952 -42.555 -4.02241
        CHANNELS 3 Zrotation Xrotation Yrotation
        JOINT RightToeBase
        {
          OFFSET -0.0828122 -6.13587 12.8035
          CHANNELS 3 Zrotation Xrotation Yrotation
          End Site
          {
            OFFSET -0.131328 -1.35082 5.13018
          }
        }
      }
    }
  }
}
MOTION
Frames:	13
Frame Time:	0.0333333
-281.635 89.7309 -297.096 64.1678 -35.7989 -15.1877 -70.1915 0 88.8779 89.8045 67.7027 -3.48515 2.94683 15.4236 7.03434 -153.518 20.0746 173.69 -151.165 58.6949 -178.656 -0.495859 -16.641 -34.5238 -61.7237 44.4217 -95.0433 8.23952 13.5222 -31.4457 0.420823 -0.0107512 0.358678 -1.73847 4.98411 49.3098 -84.6157 -28.2641 75.2662 4.17935 -28.2001 21.7959 0.58676 0.000331115 0.0646652 -64.7277 0.944955 95.2181 -5.37792 51.0914 -19.2272 -5.96244 -4.26472 0.12531 12.4529 -24.6454 7.11939 -26.4499 5.87411 82.4952 1.76427 45.3585 -2.78702 -8.90286 -8.54469 1.30415 2.24165 -12.9077 -13.5563 
-279.201 89.96 -294.473 64.0085 -35.7635 -15.0486 -70.1915 0 88.8779 88.8041 67.733 -1.36834 3.07152 15.7478 6.2623 -153.191 20.3236 173.673 -151.875 59.0311 -178.319 -0.467322 -16.5149 -34.5555 -60.8822 45.1194 -94.5556 8.52149 14.3523 -30.8101 0.420823 -0.0107512 0.358678 -1.74593 5.10527 48.6614 -81.6797 -30.0186 77.3993 4.03898 -23.1926 22.5846 0.58676 0.000331115 0.0646652 -60.6371 2.34284 94.4745 -7.19147 58.628 -18.2794 -8.34758 5.58116 1.82905 12.2373 -24.2135 7.72953 -28.2071 6.15361 81.8315 1.95086 46.4619 -2.4119 -8.99162 -11.3699 1.30792 2.24113 -10.669 -13.6876 
-276.953 90.4677 -291.974 64.4668 -36.8851 -14.7783 -70.1915 0 88.8779 94.0374 68.4529 -5.52213 1.82234 16.7468 5.6059 -153.856 20.699 173.91 -152.856 59.5012 -177.929 -0.475486 -16.4927 -34.7823 -60.7356 45.4806 -93.6514 8.54675 14.4711 -30.6772 0.420823 -0.0107512 0.358678 -1.80892 5.37501 48.1067 -76.3601 -31.88 80.8627 4.51603 -17.2251 24.1676 0.58676 0.000331115 0.0646652 -56.0098 3.54855 93.9226 -10.3594 67.0485 -12.4694 -7.46021 7.4859 1.93877 8.53387 -18.0411 13.9787 -31.5552 8.00805 83.1591 1.80964 45.6294 -2.90073 -9.17894 -12.5399 1.31119 2.09653 -11.1422 -11.4367 
-274.692 90.8347 -289.477 64.8891 -37.7303 -14.7892 -70.1915 0 88.8779 96.523 68.9763 -7.55694 1.56605 17.5962 5.05152 -153.907 21.1243 174.79 -154.522 60.1706 -175.744 -0.4505 -16.3144 -35.1006 -61.3857 45.9988 -92.407 8.8706 15.1524 -30.482 0.420823 -0.0107512 0.358678 -1.8821 5.72349 47.3239 -72.503 -32.8896 84.3829 4.71867 -13.1204 25.4299 0.58676 0.000331115 0.0646652 -50.6792 4.06515 93.4673 -13.4727 73.2589 -0.797519 -4.22377 3.46183 0.851096 6.22566 -14.237 10.111 -34.568 8.77594 83.7519 1.61967 45.4953 -4.15984 -7.65095 -16.2952 1.32439 1.6824 -6.85133 -8.35737 
-272.496 91.5854 -286.965 64.8581 -37.4857 -15.5851 -70.1915 0 88.8779 94.2707 69.6378 -6.42675 2.07846 18.1584 5.23586 -153.843 21.5192 174.899 -154.931 60.5891 -175.751 -0.438254 -16.2748 -35.0573 -60.5346 46.4538 -92.7839 7.79446 13.732 -29.6859 0.420823 -0.0107512 0.358678 -1.89579 5.83885 46.9131 -71.537 -32.9267 86.4361 8.22165 -15.6981 28.2486 0.58676 0.000331115 0.0646652 -44.9621 3.37748 93.0954 -14.6213 75.2995 4.46035 -2.22939 2.57104 0.447063 5.79549 -13.6593 11.5802 -37.7476 8.11568 83.6568 1.63259 43.8284 -3.21337 -8.42082 -17.1753 1.31796 1.70445 -6.64752 -8.66457 
-270.1 92.2984 -284.253 64.9415 -38.0014 -15.8859 -70.1915 0 88.8779 95.6475 70.217 -7.62605 1.43594 18.9715 4.55822 -153.17 21.493 175.253 -155.829 60.6447 -174.882 -0.22972 -15.5973 -34.236 -61.4264 47.9045 -91.4297 7.30318 12.9397 -29.5372 0.420823 -0.0107512 0.358678 -1.90602 6.01273 46.1554 -70.2785 -33.7422 88.4643 7.62797 -13.3169 30.3158 0.58676 0.000331115 0.0646652 -40.4053 3.19634 92.85 -13.2203 74.2366 3.76274 -0.581717 -0.315831 -0.041312 6.08676 -13.9492 9.44719 -41.8451 8.53567 84.0925 1.51187 41.1795 -2.45199 -7.5698 -18.5396 1.35373 1.48665 -3.20509 -8.23329 
-267.766 93.0575 -281.599 64.1191 -39.4069 -17.7229 -70.1915 0 88.8779 94.1077 71.7003 -6.75725 1.17353 20.5588 4.28408 -151.994 21.9404 175.155 -156.216 61.1244 -174.666 -0.242826 -15.6488 -34.2529 -62.2447 48.7388 -89.5207 7.63589 12.9781 -30.5283 0.420823 -0.0107512 0.358678 -1.88176 6.03515 45.658 -69.8884 -34.1486 89.6593 6.25028 -9.64725 33.4084 0.58676 0.000331115 0.0646652 -36.7232 2.6043 93.8594 -10.1723 69.6881 -2.1858 -0.721759 -2.48582 -0.207105 8.38154 -17.8333 16.7573 -45.8143 9.29901 87.1375 1.38689 38.0873 -1.73397 -4.72776 -20.0501 1.51019 1.58261 0.374449 -9.89184 
-265.287 93.4541 -279.097 63.5896 -39.8064 -18.8496 -70.1915 0 88.8779 95.0407 72.3494 -8.01352 0.132344 21.3819 4.01335 -151.233 22.0403 175.592 -157.598 61.3369 -173.212 -0.139237 -15.2889 -33.8775 -62.9484 49.6885 -88.0611 8.07146 13.4604 -31.027 0.420823 -0.0107512 0.358678 -1.86219 6.08581 45.095 -71.4677 -34.0701 89.9725 8.16563 -11.4123 36.0982 0.58676 0.000331115 0.0646652 -33.4382 1.21618 93.4933 -6.98332 63.085 -5.28449 -1.43919 -4.39018 -0.303822 8.04132 -17.3009 14.1319 -49.2306 8.64376 86.3785 0.784977 35.3894 -1.1039 -9.00602 -18.9043 1.30423 1.18859 -4.19838 -5.47357 
-262.718 93.5577 -276.557 62.9976 -40.3222 -19.4171 -70.1915 0 88.8779 96.3759 72.8959 -8.81562 -0.678651 22.1819 3.40358 -150.365 22.1583 175.226 -156.796 61.4128 -173.659 -0.097888 -15.1482 -33.6967 -63.1591 50.3094 -86.585 9.33995 15.0983 -31.9018 0.420823 -0.0107512 0.358678 -1.8659 6.15837 44.7941 -69.4783 -33.8771 92.387 7.15718 -9.28588 38.0982 0.58676 0.000331115 0.0646652 -30.8401 0.819022 93.6204 -4.69183 54.9432 -6.58781 -1.18186 -5.63774 -0.438752 8.11312 -17.4032 13.7683 -52.358 8.2123 84.7077 0.266466 33.5071 1.28148 -8.79501 -19.7761 1.31339 1.24683 -4.24264 -5.91067 
-259.977 93.3933 -274.044 61.9846 -41.0563 -20.1879 -70.1915 0 88.8779 96.5917 73.5268 -7.76585 -0.748272 23.1799 2.07875 -150.177 22.1812 175.006 -156.518 61.4215 -173.927 -0.103184 -15.1837 -33.6343 -63.6759 50.7115 -85.3075 9.38256 14.7587 -32.6016 0.420823 -0.0107512 0.358678 -1.84424 6.19528 44.2789 -69.4606 -33.2441 93.724 7.96805 -9.48459 40.5186 0.58676 0.000331115 0.0646652 -29.0337 0.594278 93.7014 -3.24993 45.2393 -7.83882 -2.14369 -6.80484 -0.476495 8.34567 -17.7577 13.9955 -55.3439 7.60902 83.1139 0.209997 31.654 3.20405 -8.34261 -21.0565 1.34125 0.68244 -3.07988 -2.36187 
-257.218 93.1487 -271.43 60.5453 -41.5964 -21.0573 -70.1915 0 88.8779 94.0872 74.0466 -4.18968 -0.155407 23.8115 1.14859 -151.199 22.4083 175.651 -157.31 61.664 -173.739 -0.0692369 -15.0133 -33.7551 -64.456 51.0406 -84.2415 9.21631 14.2071 -33.1095 0.420823 -0.0107512 0.358678 -1.83559 6.36685 43.3408 -68.5861 -32.6581 96.1392 8.82248 -9.89469 42.2284 0.58676 0.000331115 0.0646652 -27.442 0.53323 93.4763 -2.47372 35.0905 -9.31253 -2.6676 -6.94164 -0.454049 8.28317 -17.6757 15.126 -58.3994 6.94418 81.6643 0.974955 29.2031 6.8329 -7.24416 -21.966 1.41901 0.427468 0.638489 -3.0542 
-254.447 92.8935 -268.861 59.8459 -41.9853 -21.8932 -70.1915 0 88.8779 93.6178 74.3977 -4.05982 -0.125436 24.1828 1.15375 -151.936 22.4442 176.64 -158.202 61.7325 -173.002 -0.00719198 -14.6467 -34.307 -65.1437 51.1983 -83.4677 8.96023 13.8485 -33.0237 0.420823 -0.0107512 0.358678 -1.84069 6.45138 43.0345 -67.7873 -31.0791 97.9763 8.81494 -9.48729 43.3838 0.58676 0.000331115 0.0646652 -27.0938 -0.389244 93.3842 -1.23146 25.3985 -9.92951 -3.74913 -6.77045 -0.360525 8.93592 -18.6445 14.0676 -61.4961 6.27664 81.228 1.15752 27.4604 8.89144 -6.60311 -22.072 1.46374 0.68705 -0.0137258 -4.27559 
-251.647 92.3404 -266.203 59.388 -42.7634 -22.5157 -70.1915 0 88.8779 94.0677 74.6899 -4.45522 0.257877 24.7522 0.380585 -152.257 22.2097 177.007 -159.155 61.5683 -172.007 0.0647197 -14.3342 -34.3646 -65.711 51.2794 -83.1825 8.45566 13.4936 -32.1681 0.420823 -0.0107512 0.358678 -1.92052 6.70095 43.1106 -68.1936 -29.7911 99.1744 9.59962 -10.131 43.9906 0.58676 0.000331115 0.0646652 -26.4992 -0.562844 93.863 -0.875208 20.0259 -9.90764 -3.03259 -5.54025 -0.280362 10.7366 -21.2873 14.6236 -63.9438 6.08311 81.3135 0.812953 27.5424 10.2119 -5.73748 -21.4942 1.50452 1.07072 -4.19913 -4.53951 
